<svg
    width="160 "
    height="67"
    viewBox="0 0 205 86"
    fill="none"
    xmlns="http://www.w3.org/2000/svg"
>
    <g clipPath="url(#clip0)">
    <path
        d="M96.07 42.5798C94.4361 43.6184 92.5359 44.1603 90.6 44.1398C89.2469 44.1541 87.9055 43.8885 86.66 43.3598V47.9998C85.9778 47.0968 85.1017 46.3584 84.0961 45.8392C83.0905 45.32 81.9812 45.0331 80.85 44.9998C73.53 44.9998 71.15 52.9998 71.15 60.5498C71.15 67.8598 73.58 75.7998 80.57 75.7998C83.57 75.7998 85.66 74.5198 87.04 71.2798H87.17V75.1998H96.11V43.5598L96.07 42.5798ZM86.07 66.5798C85.9135 67.0123 85.6304 67.3876 85.2577 67.6569C84.8849 67.9263 84.4397 68.0771 83.98 68.0898C81.03 68.0898 80.89 63.4498 80.89 60.8398C80.9054 58.9934 81.0659 57.1511 81.37 55.3298C81.65 53.5298 82.37 52.1998 84.03 52.1998C84.4346 52.2063 84.8309 52.3163 85.181 52.5194C85.5311 52.7225 85.8234 53.0118 86.03 53.3598C86.5399 54.4443 86.7406 55.6486 86.61 56.8398V62.8398C86.7667 64.1049 86.5837 65.3889 86.08 66.5598L86.07 66.5798Z"
        fill="#ffffff"
    />
    <path
        d="M122.87 68.7099V58.3199C122.87 54.0899 123.25 50.2599 120.06 47.5399C119.656 47.1963 119.221 46.8916 118.76 46.6299C116.948 47.9786 114.738 48.6826 112.48 48.6299C108.31 48.6299 105.56 48.0699 104.08 46.9199L103.78 46.6799V46.6099C102.369 47.3921 101.159 48.491 100.244 49.8201C99.3298 51.1493 98.7362 52.6725 98.51 54.2699L107.17 55.2699C107.169 54.7977 107.267 54.3305 107.458 53.8985C107.649 53.4665 107.928 53.0793 108.277 52.7618C108.627 52.4443 109.039 52.2036 109.487 52.0551C109.936 51.9066 110.41 51.8538 110.88 51.8999C113.16 51.8999 113.74 52.8999 113.74 55.6199V55.8999C110.479 56.0535 107.256 56.6731 104.17 57.7399C102.285 58.4102 100.656 59.654 99.5139 61.2969C98.3715 62.9397 97.7721 64.899 97.8 66.8999C97.8 72.8199 101.8 75.8299 106.27 75.8299C107.908 75.9055 109.531 75.501 110.942 74.6659C112.353 73.8309 113.489 72.6019 114.21 71.1299C114.203 72.5101 114.313 73.8884 114.54 75.2499H123.63C123.017 73.1268 122.76 70.9169 122.87 68.7099ZM113.74 61.8999C113.74 65.1499 113.74 68.7999 110.12 68.7999C108.65 68.7999 107.65 67.9899 107.65 66.0699C107.65 62.4799 111.45 61.6099 113.74 61.3199V61.8999Z"
        fill="#ffffff"
    />
    <path
        d="M15.75 44.98C12.51 44.98 9.85 46.2 8.85 49.8H8.76V45.56H0V84.56H9.42V72.01C10.0165 73.157 10.9191 74.1165 12.0275 74.7819C13.136 75.4474 14.4072 75.7928 15.7 75.78C19.08 75.78 21.6 73.58 23.17 70.04C24.3931 66.8518 24.9743 63.4534 24.88 60.04C24.88 53.11 22.59 44.98 15.75 44.98ZM14.6 66.04C14.22 67.61 13.37 68.47 12.04 68.47C9.75 68.47 9.47 65.75 9.47 63.66V56.58C9.3377 55.5449 9.53728 54.4944 10.04 53.58C10.2646 53.2139 10.577 52.9096 10.949 52.6948C11.3209 52.48 11.7406 52.3615 12.17 52.35C15.17 52.35 15.12 58.21 15.12 60.64C15.1431 62.4535 14.9687 64.2642 14.6 66.04Z"
        fill="#ffffff"
    />
    <path
        d="M34.5 51.6499H34.41V45.5599H26.41V75.1999H35.83V62.3199C35.7052 60.5929 35.9297 58.8584 36.49 57.2199C37.25 55.5399 38.82 55.2199 40.35 55.2199C40.9607 55.2301 41.5669 55.3277 42.15 55.5099V45.0999L40.87 44.9799C37.07 44.6399 35.31 47.5399 34.5 51.6499Z"
        fill="#ffffff"
    />
    <path
        d="M202.39 47.5399C201.7 46.715 200.832 46.0564 199.853 45.6131C198.873 45.1699 197.805 44.9535 196.73 44.9799C195.192 44.9067 193.669 45.3077 192.367 46.1287C191.065 46.9497 190.047 48.151 189.45 49.5699C188.919 48.2175 187.993 47.0564 186.793 46.238C185.592 45.4196 184.173 44.9819 182.72 44.9819C181.267 44.9819 179.848 45.4196 178.647 46.238C177.447 47.0564 176.521 48.2175 175.99 49.5699H175.9V45.5699H167.34V75.1999H176.56V57.3999C176.56 55.1899 176.75 53.1599 178.99 53.1599C180.99 53.1599 181.13 55.5399 181.13 57.3999V75.1999H190.36V58.7299C190.36 56.3499 190.26 53.3399 192.92 53.3399C195.11 53.3399 194.92 55.4799 194.92 57.3999V75.1999H204.17V55.7699C204.17 52.6399 204.17 49.7399 202.39 47.5399Z"
        fill="#ffffff"
    />
    <path
        d="M151.89 44.9798C150.039 44.9669 148.21 45.3732 146.539 46.1681C144.867 46.963 143.398 48.126 142.24 49.5698C139.867 52.8108 138.63 56.7441 138.72 60.7598C138.587 64.8363 139.994 68.8134 142.66 71.8998C143.922 73.2083 145.45 74.2315 147.14 74.9008C148.83 75.57 150.644 75.8697 152.46 75.7798C158.22 75.7798 163.46 72.4798 164.92 65.2798L156.03 64.5898C155.65 67.1398 154.46 68.1798 152.32 68.1798C149.47 68.1798 148.61 65.8598 148.61 62.6698H164.92V61.1098C164.92 51.3598 159.98 44.9798 151.89 44.9798ZM148.61 56.8998C148.61 54.1798 149.51 51.7998 151.99 51.7998C154.65 51.7998 155.41 53.9998 155.41 56.8998H148.61Z"
        fill="#ffffff"
    />
    <path
        d="M57.94 53.4799C59.04 55.1799 59.06 58.2699 59.06 60.2399C59.06 68.1799 57.49 68.7599 55.78 68.7599C54.07 68.7599 52.5 68.1799 52.5 60.2399C52.5 58.2399 52.5 55.1799 53.62 53.4799H53.55V45.1799C47.08 46.2699 42.42 52.0899 42.42 60.6399C42.42 69.6399 48.36 75.7799 55.78 75.7799C63.2 75.7799 69.17 69.6299 69.17 60.6399C69.1912 58.1927 68.7501 55.7635 67.87 53.4799H57.94Z"
        fill="#ffffff"
    />
    <path
        d="M136.67 45.5598H127.25V72.7698C127.25 75.1998 127.11 77.0598 124.59 77.0598C123.895 77.0207 123.216 76.8439 122.59 76.5398V84.8998C124.487 85.255 126.41 85.449 128.34 85.4798C129.685 85.5528 131.026 85.2684 132.225 84.6554C133.425 84.0424 134.441 83.1227 135.17 81.9898C136.79 79.3798 136.65 75.8398 136.65 72.7698L136.67 45.5598Z"
        fill="#ffffff"
    />
    <path
        d="M25.36 11.92H17.17L11.47 19.92L9.42 23.23V1.77002H0V41.56H9.42V33.38L11.8 29.67L16.36 41.56H26.21L18.03 22.13L25.36 11.92Z"
        fill="#FF1E00"
    />
    <path
        d="M41.67 11.8999V28.9699C41.7245 30.0367 41.5542 31.1032 41.17 32.0999C41.0008 32.5754 40.6934 32.9894 40.2871 33.2888C39.8808 33.5882 39.3942 33.7592 38.89 33.7799C36.75 33.7799 36.79 31.7799 36.79 29.8399V11.8999H27.4V32.3899C27.4 35.1799 27.59 37.7899 29.3 39.8699C29.9784 40.6267 30.8167 41.223 31.7542 41.6156C32.6916 42.0082 33.7047 42.1873 34.72 42.1399C36.3895 42.2188 38.0351 41.7185 39.3781 40.7235C40.7212 39.7285 41.6792 38.3001 42.09 36.6799H42.17V41.5599H51.06V11.8999H41.67Z"
        fill="#FF1E00"
    />
    <path
        d="M97.55 11.8999V28.9699C97.6109 30.0353 97.4474 31.1017 97.07 32.0999C96.9008 32.5754 96.5934 32.9894 96.1871 33.2888C95.7808 33.5882 95.2942 33.7592 94.79 33.7799C92.65 33.7799 92.7 31.7799 92.7 29.8399V11.8999H83.28V32.3899C83.28 35.1799 83.47 37.7899 85.18 39.8699C85.8597 40.625 86.6983 41.2202 87.6354 41.6127C88.5726 42.0051 89.585 42.1852 90.6 42.1399C92.2708 42.2193 93.9178 41.7193 95.2625 40.7244C96.6072 39.7296 97.5671 38.3009 97.98 36.6799H98.07V41.5599H103.78V35.6399H106.4C106.61 35.6399 106.78 35.6399 106.96 35.6399V11.8999H97.55Z"
        fill="#FFCD00"
    />
    <path
        d="M71.3 11.3398C68.06 11.3398 65.4 12.5598 64.4 16.1498H64.3V11.8998H55.55V51.4798H64.97V38.3698C65.5665 39.5169 66.469 40.4763 67.5775 41.1418C68.686 41.8072 69.9572 42.1527 71.25 42.1398C74.62 42.1398 77.15 39.9298 78.71 36.3998C79.9412 33.2137 80.5259 29.8143 80.43 26.3998C80.43 19.4598 78.17 11.3398 71.3 11.3398ZM70.17 32.3898C69.79 33.9598 68.94 34.8298 67.6 34.8298C65.32 34.8298 65.04 32.0998 65.04 30.0198V22.8998C64.9125 21.8649 65.1118 20.8159 65.61 19.8998C65.8339 19.5436 66.1412 19.2472 66.5053 19.0363C66.8695 18.8255 67.2795 18.7066 67.7 18.6898C70.7 18.6898 70.65 24.5398 70.65 26.9798C70.683 28.7951 70.5221 30.6087 70.17 32.3898Z"
        fill="#FFCD00"
    />
    <path
        d="M182.96 11.3398C181.427 11.2648 179.908 11.6618 178.608 12.4772C177.308 13.2927 176.29 14.4872 175.69 15.8998C175.159 14.5474 174.233 13.3863 173.033 12.5679C171.832 11.7495 170.413 11.3118 168.96 11.3118C167.507 11.3118 166.088 11.7495 164.887 12.5679C163.687 13.3863 162.761 14.5474 162.23 15.8998H162.17V11.8998H153.57V41.5598H162.8V23.7498C162.8 21.5498 162.99 19.5198 165.22 19.5198C167.22 19.5198 167.36 21.8998 167.36 23.7498V41.5598H176.59V25.0898C176.59 22.7098 176.5 19.6898 179.16 19.6898C181.35 19.6898 181.16 21.8398 181.16 23.7498V41.5598H190.38V22.1298C190.38 18.9998 190.38 16.1298 188.62 13.8898C187.93 13.065 187.063 12.4071 186.083 11.9655C185.102 11.5238 184.035 11.3099 182.96 11.3398Z"
        fill="#007EC3"
    />
    <path
        d="M201.63 15.6699C201.63 14.1599 200 14.1599 199.71 14.1599H197.07V19.2199H198.61V17.3899H199.32L200.12 19.2199H201.63L200.69 17.0299C200.973 16.9351 201.217 16.7514 201.386 16.5063C201.556 16.2611 201.641 15.9677 201.63 15.6699ZM199.18 16.3599H198.61V15.1199H199.27C199.93 15.1199 200.14 15.3499 200.14 15.6499C200.17 16.2699 199.54 16.3599 199.17 16.3599H199.18Z"
        fill="#007EC3"
    />
    <path
        d="M199.25 11.5498C198.235 11.5498 197.244 11.8507 196.4 12.4144C195.556 12.9781 194.899 13.7793 194.51 14.7166C194.122 15.654 194.021 16.6855 194.219 17.6806C194.417 18.6758 194.905 19.5898 195.623 20.3073C196.34 21.0247 197.254 21.5133 198.249 21.7112C199.244 21.9092 200.276 21.8076 201.213 21.4193C202.151 21.031 202.952 20.3735 203.515 19.5299C204.079 18.6863 204.38 17.6944 204.38 16.6798C204.381 16.0058 204.25 15.3381 203.992 14.7151C203.735 14.0921 203.357 13.526 202.88 13.0494C202.404 12.5728 201.838 12.195 201.215 11.9376C200.592 11.6803 199.924 11.5485 199.25 11.5498ZM199.25 20.4098C198.512 20.4098 197.791 20.1911 197.178 19.7812C196.564 19.3713 196.086 18.7888 195.804 18.1072C195.522 17.4257 195.448 16.6757 195.592 15.9521C195.736 15.2286 196.091 14.564 196.612 14.0423C197.134 13.5207 197.799 13.1654 198.522 13.0215C199.246 12.8776 199.996 12.9514 200.677 13.2337C201.359 13.5161 201.942 13.9941 202.351 14.6075C202.761 15.2209 202.98 15.9421 202.98 16.6798C202.977 17.6683 202.584 18.6155 201.885 19.3144C201.186 20.0133 200.238 20.4072 199.25 20.4098Z"
        fill="#007EC3"
    />
    <path
        d="M150.58 27.4599C150.58 17.7199 145.63 11.3399 137.58 11.3399C135.725 11.3188 133.89 11.7182 132.212 12.5079C130.533 13.2977 129.056 14.4574 127.89 15.8999C125.521 19.1429 124.284 23.0748 124.37 27.0899C124.245 31.1756 125.675 35.1566 128.37 38.2299C129.63 39.5413 131.157 40.5671 132.848 41.2381C134.539 41.9092 136.353 42.2099 138.17 42.1199C143.92 42.1199 149.17 38.8099 150.63 31.6199L141.73 30.9199C141.35 33.4799 140.16 34.5199 138.02 34.5199C135.17 34.5199 134.31 32.1999 134.31 29.0099H150.63L150.58 27.4599ZM134.26 23.2299C134.26 20.4999 135.17 18.1299 137.64 18.1299C140.3 18.1299 141.06 20.3299 141.06 23.2299H134.26Z"
        fill="#8CC63F"
    />
    <path
        d="M116.17 0C115.155 0 114.164 0.300869 113.32 0.86456C112.476 1.42825 111.819 2.22945 111.43 3.16683C111.042 4.10422 110.941 5.13569 111.139 6.13081C111.336 7.12594 111.825 8.04001 112.543 8.75746C113.26 9.4749 114.174 9.96349 115.169 10.1614C116.164 10.3594 117.196 10.2578 118.133 9.8695C119.071 9.48122 119.872 8.8237 120.435 7.98008C120.999 7.13645 121.3 6.14462 121.3 5.13C121.3 3.76944 120.759 2.4646 119.797 1.50254C118.835 0.54048 117.531 0 116.17 0Z"
        fill="#8CC63F"
    />
    <path
        d="M120.8 11.8999H111.39V33.8999C111.39 36.3299 111.24 38.1899 108.72 38.1899C107.851 38.1652 106.989 38.0376 106.15 37.8099V45.9899C108.221 46.4933 110.35 46.7186 112.48 46.6599C113.833 46.7292 115.18 46.438 116.384 45.816C117.587 45.1941 118.604 44.2637 119.33 43.1199C120.95 40.5099 120.8 36.9699 120.8 33.8999V11.8999Z"
        fill="#8CC63F"
    />
    </g>
    <defs>
    <clipPath id="clip0">
        <rect width="204.38" height="85.491" fill="white" />
    </clipPath>
    </defs>
</svg>